<?xml version="1.0" encoding="UTF-8" standalone="no"?>
<!DOCTYPE svg PUBLIC "-//W3C//DTD SVG 1.1//EN" "http://www.w3.org/Graphics/SVG/1.1/DTD/svg11.dtd">
<svg width="100%" height="100%" viewBox="0 0 33 31" version="1.1" xmlns="http://www.w3.org/2000/svg" xmlns:xlink="http://www.w3.org/1999/xlink" xml:space="preserve" xmlns:serif="http://www.serif.com/" style="fill-rule:evenodd;clip-rule:evenodd;stroke-linejoin:round;stroke-miterlimit:1.41421;">
    <g id="Монтажная-область6" serif:id="Монтажная область6" transform="matrix(0.978692,0,0,0.974509,-5.84411,-8.43324)">
        <rect x="5.971" y="8.654" width="32.757" height="31.399" style="fill:none;"/>
        <clipPath id="_clip1">
            <rect x="5.971" y="8.654" width="32.757" height="31.399"/>
        </clipPath>
        <g clip-path="url(#_clip1)">
            <g id="Монтажная-область5" serif:id="Монтажная область5" transform="matrix(1.08286,0,0,1.20575,-73.3705,-42.7978)">
                <rect x="68.176" y="35.182" width="40.421" height="41.046" style="fill:none;"/>
                <g id="Shape-17" serif:id="Shape 17" transform="matrix(0.943581,0,0,0.851053,-578.245,-2791.07)">
                    <path d="M706.492,3330.01C702.282,3330.01 701.753,3330.03 700.099,3330.1C698.449,3330.18 697.323,3330.43 696.337,3330.8C695.317,3331.18 694.452,3331.69 693.59,3332.53C692.728,3333.36 692.199,3334.2 691.801,3335.18C691.417,3336.14 691.155,3337.22 691.081,3338.82C691.007,3340.42 690.988,3340.93 690.988,3345C690.988,3349.07 691.006,3349.58 691.081,3351.18C691.157,3352.78 691.419,3353.87 691.802,3354.82C692.198,3355.81 692.728,3356.64 693.59,3357.48C694.451,3358.31 695.316,3358.82 696.335,3359.21C697.321,3359.58 698.448,3359.83 700.098,3359.9C701.752,3359.98 702.28,3359.99 706.49,3359.99C710.701,3359.99 711.228,3359.98 712.881,3359.9C714.532,3359.83 715.66,3359.58 716.646,3359.21C717.665,3358.82 718.529,3358.31 719.39,3357.48C720.253,3356.64 720.783,3355.81 721.18,3354.82C721.561,3353.87 721.823,3352.78 721.9,3351.18C721.975,3349.58 721.994,3349.07 721.994,3345C721.994,3340.93 721.975,3340.42 721.9,3338.82C721.823,3337.22 721.561,3336.14 721.18,3335.18C720.783,3334.2 720.253,3333.36 719.39,3332.53C718.528,3331.69 717.666,3331.18 716.645,3330.8C715.657,3330.43 714.53,3330.18 712.879,3330.1C711.226,3330.03 710.699,3330.01 706.487,3330.01L706.492,3330.01ZM705.101,3332.71C705.514,3332.71 705.975,3332.71 706.492,3332.71C710.632,3332.71 711.122,3332.73 712.757,3332.8C714.268,3332.87 715.088,3333.11 715.635,3333.32C716.359,3333.59 716.875,3333.91 717.417,3334.44C717.959,3334.96 718.295,3335.46 718.577,3336.16C718.789,3336.69 719.042,3337.48 719.111,3338.94C719.185,3340.52 719.201,3341 719.201,3345C719.201,3349 719.185,3349.47 719.111,3351.06C719.042,3352.52 718.789,3353.31 718.577,3353.84C718.296,3354.54 717.959,3355.04 717.417,3355.56C716.874,3356.08 716.359,3356.41 715.635,3356.68C715.089,3356.89 714.268,3357.13 712.757,3357.2C711.123,3357.27 710.632,3357.28 706.492,3357.28C702.353,3357.28 701.862,3357.27 700.228,3357.2C698.716,3357.13 697.896,3356.89 697.349,3356.68C696.625,3356.41 696.109,3356.08 695.566,3355.56C695.023,3355.04 694.688,3354.54 694.406,3353.84C694.193,3353.31 693.941,3352.51 693.872,3351.05C693.798,3349.47 693.783,3349 693.783,3345C693.783,3340.99 693.798,3340.52 693.872,3338.94C693.941,3337.48 694.193,3336.68 694.406,3336.16C694.687,3335.46 695.023,3334.96 695.566,3334.43C696.109,3333.91 696.625,3333.58 697.349,3333.31C697.895,3333.11 698.716,3332.86 700.228,3332.79C701.658,3332.73 702.212,3332.71 705.101,3332.71ZM714.768,3335.2C713.74,3335.2 712.907,3336.01 712.907,3337C712.907,3337.99 713.74,3338.8 714.768,3338.8C715.795,3338.8 716.628,3337.99 716.628,3337C716.628,3336.01 715.795,3335.2 714.768,3335.2ZM706.492,3337.31C702.095,3337.31 698.531,3340.75 698.531,3345C698.531,3349.25 702.095,3352.7 706.492,3352.7C710.889,3352.7 714.452,3349.25 714.452,3345C714.452,3340.75 710.888,3337.31 706.492,3337.31ZM706.492,3340.01C709.346,3340.01 711.66,3342.24 711.66,3345C711.66,3347.76 709.346,3350 706.492,3350C703.638,3350 701.324,3347.76 701.324,3345C701.324,3342.24 703.638,3340.01 706.492,3340.01Z" style="fill:white;fill-rule:nonzero;"/>
                </g>
            </g>
        </g>
    </g>
</svg>
