<?xml version="1.0" encoding="UTF-8" standalone="no"?>
<!DOCTYPE svg PUBLIC "-//W3C//DTD SVG 1.1//EN" "http://www.w3.org/Graphics/SVG/1.1/DTD/svg11.dtd">
<svg width="100%" height="100%" viewBox="0 0 25 20" version="1.1" xmlns="http://www.w3.org/2000/svg" xmlns:xlink="http://www.w3.org/1999/xlink" xml:space="preserve" xmlns:serif="http://www.serif.com/" style="fill-rule:evenodd;clip-rule:evenodd;stroke-linejoin:round;stroke-miterlimit:1.41421;">
    <g id="Монтажная-область6" serif:id="Монтажная область6" transform="matrix(1,0,0,1,-9.00436,-14.8349)">
        <rect x="9.004" y="14.835" width="24.82" height="19.285" style="fill:none;"/>
        <clipPath id="_clip1">
            <rect x="9.004" y="14.835" width="24.82" height="19.285"/>
        </clipPath>
        <g clip-path="url(#_clip1)">
            <g id="Монтажная-область5" serif:id="Монтажная область5" transform="matrix(1.05979,0,0,1.17501,-72.248,-40.5048)">
                <rect x="68.176" y="35.182" width="40.421" height="41.046" style="fill:none;"/>
                <g id="Shape-22" serif:id="Shape 22" transform="matrix(0.943581,0,0,0.851053,-429.171,-2662.98)">
                    <path d="M558.214,3186L538.794,3186C537.808,3186 537.002,3186.81 537.002,3187.8L537.002,3201.2C537.002,3202.19 537.809,3203 538.794,3203L558.213,3203C559.199,3203 560.005,3202.19 560.005,3201.2L560.005,3187.8C560.005,3186.81 559.199,3186 558.214,3186ZM557.25,3199.36C557.5,3199.6 557.512,3199.99 557.278,3200.24C557.156,3200.38 556.99,3200.44 556.825,3200.44C556.672,3200.44 556.52,3200.39 556.4,3200.27L551.303,3195.46L549.097,3197.63C548.977,3197.74 548.82,3197.8 548.664,3197.8C548.511,3197.8 548.358,3197.75 548.239,3197.64L545.721,3195.26L540.616,3200.26C540.495,3200.38 540.339,3200.44 540.182,3200.44C540.021,3200.44 539.86,3200.38 539.738,3200.25C539.499,3200.01 539.504,3199.61 539.749,3199.37L544.815,3194.41L539.758,3189.63C539.508,3189.4 539.496,3189 539.73,3188.75C539.965,3188.5 540.357,3188.49 540.607,3188.72L548.656,3196.32L556.392,3188.73C556.637,3188.49 557.03,3188.5 557.269,3188.74C557.509,3188.99 557.503,3189.39 557.258,3189.62L552.193,3194.59L557.25,3199.36Z" style="fill:white;fill-opacity:0.301961;fill-rule:nonzero;"/>
                </g>
            </g>
        </g>
    </g>
</svg>
