<?xml version="1.0" encoding="UTF-8" standalone="no"?>
<!DOCTYPE svg PUBLIC "-//W3C//DTD SVG 1.1//EN" "http://www.w3.org/Graphics/SVG/1.1/DTD/svg11.dtd">
<svg width="100%" height="100%" viewBox="0 0 21 23" version="1.1" xmlns="http://www.w3.org/2000/svg" xmlns:xlink="http://www.w3.org/1999/xlink" xml:space="preserve" xmlns:serif="http://www.serif.com/" style="fill-rule:evenodd;clip-rule:evenodd;stroke-linejoin:round;stroke-miterlimit:1.41421;">
    <g id="Монтажная-область6" serif:id="Монтажная область6" transform="matrix(0.913256,0,0,0.982243,-8.53105,-10.5398)">
        <rect x="9.341" y="10.73" width="22.342" height="23.115" style="fill:none;"/>
        <clipPath id="_clip1">
            <rect x="9.341" y="10.73" width="22.342" height="23.115"/>
        </clipPath>
        <g clip-path="url(#_clip1)">
            <g id="Монтажная-область5" serif:id="Монтажная область5" transform="matrix(1.16045,0,0,1.19625,-81.7507,-41.9554)">
                <rect x="68.176" y="35.182" width="40.421" height="41.046" style="fill:none;"/>
                <g id="Shape-21" serif:id="Shape 21" transform="matrix(0.943581,0,0,0.851053,-237.586,-2665.28)">
                    <path d="M354.675,3201.02L350.399,3197.44C350.056,3197.15 349.557,3197.16 349.223,3197.47L347.852,3198.71C347.824,3198.74 347.797,3198.76 347.772,3198.77C347.588,3198.85 346.785,3198.89 344.174,3195.83C343.069,3194.54 342.387,3193.58 342.027,3192.83C341.835,3192.42 341.652,3191.9 341.868,3191.7L343.239,3190.46C343.574,3190.16 343.648,3189.65 343.415,3189.26L340.511,3184.43C340.371,3184.2 340.137,3184.04 339.872,3184C339.607,3183.97 339.338,3184.05 339.137,3184.23L337.766,3185.47C336.231,3186.87 335.668,3189.15 336.181,3191.9C336.66,3194.47 338.038,3197.19 340.061,3199.56C343.836,3203.99 348.782,3206.02 352.088,3204.51C352.542,3204.3 352.958,3204.03 353.325,3203.7L354.696,3202.45C354.897,3202.27 355.011,3202.01 355.007,3201.73C355.004,3201.45 354.883,3201.2 354.675,3201.02Z" style="fill:white;fill-opacity:0.301961;fill-rule:nonzero;"/>
                </g>
            </g>
        </g>
    </g>
</svg>
