<?xml version="1.0" encoding="UTF-8" standalone="no"?>
<!DOCTYPE svg PUBLIC "-//W3C//DTD SVG 1.1//EN" "http://www.w3.org/Graphics/SVG/1.1/DTD/svg11.dtd">
<svg width="100%" height="100%" viewBox="0 0 43 27" version="1.1" xmlns="http://www.w3.org/2000/svg" xmlns:xlink="http://www.w3.org/1999/xlink" xml:space="preserve" xmlns:serif="http://www.serif.com/" style="fill-rule:evenodd;clip-rule:evenodd;stroke-linejoin:round;stroke-miterlimit:1.41421;">
    <g id="Монтажная-область6" serif:id="Монтажная область6" transform="matrix(0.978461,0,0,0.939119,0.67072,-10.0377)">
        <rect x="-0.685" y="10.688" width="43.943" height="28.516" style="fill:none;"/>
        <clipPath id="_clip1">
            <rect x="-0.685" y="10.688" width="43.943" height="28.516"/>
        </clipPath>
        <g clip-path="url(#_clip1)">
            <g id="Монтажная-область5" serif:id="Монтажная область5" transform="matrix(1.08312,0,0,1.25118,-74.4737,-44.751)">
                <rect x="68.176" y="35.182" width="40.421" height="41.046" style="fill:none;"/>
                <g id="Shape-25" serif:id="Shape 25" transform="matrix(0.943581,0,0,0.851053,-760.835,-2790.64)">
                    <path d="M899.999,3331.99C894.402,3331.99 890.202,3333.39 886.001,3337.56L878.997,3337.56C878.997,3337.56 878.997,3339.64 881.801,3340.34C880.541,3342.03 878.997,3344.99 878.997,3347.28C878.997,3353 883.019,3356.99 888.794,3356.99C892.071,3356.99 895.273,3355.17 897.195,3352.83L899.999,3356.99L902.802,3352.83C904.724,3355.17 907.927,3356.99 911.203,3356.99C916.978,3356.99 921,3353 921,3347.28C921,3344.99 919.456,3342.05 918.196,3340.33C921,3339.63 921,3337.55 921,3337.55L913.996,3337.55C909.796,3333.38 905.596,3331.99 899.999,3331.99ZM899.999,3333.38C907.003,3333.38 911.203,3337.55 911.203,3337.55C905.596,3337.55 899.999,3344.49 899.999,3351.44C899.999,3344.49 894.402,3337.56 888.794,3337.56C888.794,3337.55 892.995,3333.38 899.999,3333.38ZM888.794,3340.33C892.659,3340.33 895.798,3343.43 895.798,3347.28C895.798,3351.11 892.669,3354.22 888.794,3354.22C884.92,3354.22 881.791,3351.12 881.791,3347.28C881.801,3343.44 884.93,3340.33 888.794,3340.33ZM911.203,3340.33C915.067,3340.33 918.207,3343.43 918.207,3347.28C918.207,3351.11 915.078,3354.22 911.203,3354.22C907.328,3354.22 904.199,3351.11 904.199,3347.28C904.199,3343.44 907.328,3340.33 911.203,3340.33ZM888.794,3343.11C886.474,3343.11 884.594,3344.97 884.594,3347.28C884.594,3349.58 886.474,3351.44 888.794,3351.44C891.115,3351.44 892.995,3349.58 892.995,3347.28C892.995,3344.97 891.115,3343.11 888.794,3343.11ZM911.203,3343.11C908.882,3343.11 907.003,3344.97 907.003,3347.28C907.003,3349.58 908.882,3351.44 911.203,3351.44C913.523,3351.44 915.403,3349.58 915.403,3347.28C915.403,3344.97 913.523,3343.11 911.203,3343.11ZM888.794,3344.49C890.338,3344.49 891.598,3345.74 891.598,3347.28C891.598,3348.81 890.338,3350.06 888.794,3350.06C887.251,3350.06 885.991,3348.82 885.991,3347.28C886.001,3345.74 887.251,3344.49 888.794,3344.49ZM911.203,3344.49C912.747,3344.49 914.007,3345.74 914.007,3347.28C914.007,3348.81 912.747,3350.06 911.203,3350.06C909.659,3350.06 908.399,3348.81 908.399,3347.28C908.399,3345.74 909.649,3344.49 911.203,3344.49ZM888.794,3345.88C888.017,3345.88 887.398,3346.5 887.398,3347.26C887.398,3348.03 888.028,3348.65 888.794,3348.65C889.572,3348.65 890.191,3348.02 890.191,3347.26C890.202,3346.5 889.572,3345.88 888.794,3345.88ZM911.203,3345.88C910.426,3345.88 909.806,3346.5 909.806,3347.26C909.806,3348.03 910.436,3348.65 911.203,3348.65C911.98,3348.65 912.599,3348.02 912.599,3347.26C912.599,3346.5 911.969,3345.88 911.203,3345.88Z" style="fill:white;fill-rule:nonzero;"/>
                </g>
            </g>
        </g>
    </g>
</svg>
