<?xml version="1.0" encoding="UTF-8" standalone="no"?>
<!DOCTYPE svg PUBLIC "-//W3C//DTD SVG 1.1//EN" "http://www.w3.org/Graphics/SVG/1.1/DTD/svg11.dtd">
<svg width="100%" height="100%" viewBox="0 0 32 19" version="1.1" xmlns="http://www.w3.org/2000/svg" xmlns:xlink="http://www.w3.org/1999/xlink" xml:space="preserve" xmlns:serif="http://www.serif.com/" style="fill-rule:evenodd;clip-rule:evenodd;stroke-linejoin:round;stroke-miterlimit:1.41421;">
    <g id="Монтажная-область3" serif:id="Монтажная область3" transform="matrix(0.966913,0,0,0.942729,1.39954,-0.836837)">
        <rect x="-1.447" y="0.888" width="32.469" height="19.499" style="fill:none;"/>
        <clipPath id="_clip1">
            <rect x="-1.447" y="0.888" width="32.469" height="19.499"/>
        </clipPath>
        <g clip-path="url(#_clip1)">
            <g id="Монтажная-область2" serif:id="Монтажная область2" transform="matrix(0.738418,0,0,0.854043,-493.22,-368.751)">
                <rect x="667.279" y="431.424" width="41.563" height="25.871" style="fill:none;"/>
                <g id="Shape-16" serif:id="Shape 16" transform="matrix(1.40059,0,0,1.24203,509.331,-3709.02)">
                    <path d="M127.174,3352.74L129.027,3352.74C129.027,3352.74 129.586,3352.68 129.873,3352.37C130.136,3352.09 130.127,3351.55 130.127,3351.55C130.127,3351.55 130.091,3349.05 131.245,3348.68C132.383,3348.31 133.844,3351.1 135.392,3352.17C136.563,3352.98 137.452,3352.8 137.452,3352.8L141.593,3352.74C141.593,3352.74 143.758,3352.61 142.731,3350.89C142.647,3350.75 142.133,3349.62 139.653,3347.31C137.056,3344.88 137.404,3345.27 140.532,3341.07C142.436,3338.51 143.197,3336.95 142.959,3336.28C142.733,3335.65 141.332,3335.82 141.332,3335.82L136.67,3335.85C136.67,3335.85 136.325,3335.8 136.068,3335.95C135.818,3336.1 135.657,3336.46 135.657,3336.46C135.657,3336.46 134.919,3338.43 133.935,3340.12C131.86,3343.67 131.03,3343.86 130.69,3343.64C129.901,3343.12 130.098,3341.57 130.098,3340.47C130.098,3337.03 130.617,3335.59 129.089,3335.22C128.583,3335.1 128.21,3335.02 126.913,3335.01C125.251,3334.99 123.843,3335.01 123.046,3335.4C122.515,3335.66 122.106,3336.25 122.356,3336.28C122.664,3336.32 123.361,3336.47 123.731,3336.98C124.209,3337.63 124.192,3339.1 124.192,3339.1C124.192,3339.1 124.467,3343.15 123.551,3343.66C122.923,3344 122.061,3343.3 120.21,3340.08C119.262,3338.43 118.546,3336.6 118.546,3336.6C118.546,3336.6 118.409,3336.26 118.162,3336.08C117.863,3335.86 117.446,3335.79 117.446,3335.79L113.016,3335.82C113.016,3335.82 112.351,3335.84 112.107,3336.13C111.89,3336.39 112.09,3336.92 112.09,3336.92C112.09,3336.92 115.558,3345.1 119.484,3349.21C123.086,3352.99 127.174,3352.74 127.174,3352.74Z" style="fill:white;fill-rule:nonzero;"/>
                </g>
            </g>
        </g>
    </g>
</svg>
