<?xml version="1.0" encoding="UTF-8" standalone="no"?>
<!DOCTYPE svg PUBLIC "-//W3C//DTD SVG 1.1//EN" "http://www.w3.org/Graphics/SVG/1.1/DTD/svg11.dtd">
<svg width="100%" height="100%" viewBox="0 0 38 25" version="1.1" xmlns="http://www.w3.org/2000/svg" xmlns:xlink="http://www.w3.org/1999/xlink" xml:space="preserve" xmlns:serif="http://www.serif.com/" style="fill-rule:evenodd;clip-rule:evenodd;stroke-linejoin:round;stroke-miterlimit:1.41421;">
    <g id="Монтажная-область6" serif:id="Монтажная область6" transform="matrix(0.963549,0,0,1,-2.5022,-12.2276)">
        <rect x="2.597" y="12.228" width="38.455" height="24.1" style="fill:none;"/>
        <clipPath id="_clip1">
            <rect x="2.597" y="12.228" width="38.455" height="24.1"/>
        </clipPath>
        <g clip-path="url(#_clip1)">
            <g id="Монтажная-область5" serif:id="Монтажная область5" transform="matrix(1.09988,0,0,1.17501,-75.3047,-41.1121)">
                <rect x="68.176" y="35.182" width="40.421" height="41.046" style="fill:none;"/>
                <g id="Shape-20" serif:id="Shape 20" transform="matrix(0.943581,0,0,0.851053,-396.606,-2791.5)">
                    <path d="M531.374,3337.7C530.933,3335.95 529.367,3334.65 527.481,3334.46C523.016,3334 518.496,3334 513.998,3334C509.498,3334 504.978,3334 500.513,3334.46C498.628,3334.65 497.063,3335.95 496.622,3337.7C495.995,3340.2 495.988,3342.93 495.988,3345.5C495.988,3348.08 495.988,3350.81 496.615,3353.31C497.055,3355.06 498.621,3356.36 500.506,3356.55C504.971,3357.01 509.491,3357.01 513.991,3357.01C518.491,3357.01 523.01,3357.01 527.474,3356.55C529.359,3356.36 530.925,3355.06 531.366,3353.31C531.994,3350.81 531.996,3348.08 531.996,3345.5C531.996,3342.93 532.001,3340.2 531.374,3337.7ZM509.345,3350.63C509.345,3346.97 509.345,3343.36 509.345,3339.71C513.162,3341.53 516.952,3343.35 520.793,3345.18C516.964,3347.01 513.171,3348.81 509.345,3350.63Z" style="fill:white;fill-rule:nonzero;"/>
                </g>
            </g>
        </g>
    </g>
</svg>
